# xmcd
#
# Track frame offsets:
#	150
#	42376
#	74077
#	115582
#	167006
#	224208
#	273099
#
# Disc length: 4140 seconds
#
# Revision: 1
# Processed by: cddbd v1.5.2PL0 Copyright (c) Steve Scherf et al.
# Submitted via: audiograbber 1.83.01
#
DISCID=6b102a07
DTITLE=Grateful Dead - 80-09-02 Community War Memorial, Rochester NY
DYEAR=1900
DGENRE=
TTITLE0=Althea
TTITLE1=C C Rider
TTITLE2=Ship Of Fools
TTITLE3=Estimated Prophet
TTITLE4=Terrapin Station
TTITLE5=Playing In The Band
TTITLE6=Drums
EXTD=
EXTT0=
EXTT1=
EXTT2=
EXTT3=
EXTT4=
EXTT5=
EXTT6=
PLAYORDER=
